<?xml version="1.0" encoding="utf-8"?>
<!-- Generator: Adobe Illustrator 24.3.0, SVG Export Plug-In . SVG Version: 6.00 Build 0)  -->
<svg version="1.1" id="Слой_1" xmlns="http://www.w3.org/2000/svg" xmlns:xlink="http://www.w3.org/1999/xlink" x="0px" y="0px"
	 viewBox="0 0 720 434" style="enable-background:new 0 0 720 434;" xml:space="preserve">
<style type="text/css">
	.st0{fill:#663333;}
	.st1{fill:#B2ABAC;}
</style>
<g>
	<path class="st0" d="M646.6,272.5c34.5,5.5,60.9,35.5,60.9,71.6c0,40-32.5,72.5-72.5,72.5H398c-8.8,0-15.9-7.1-15.9-15.9
		c0-8.8,7.1-15.9,15.9-15.9h237.1c22.5,0,40.8-18.3,40.8-40.8c0-22.5-18.3-40.8-40.8-40.8h-16.1c-15.4,10.9-34.1,17.3-54.4,17.3
		H69.8c-31.6,0-57.4-25.8-57.4-57.4c0-38,13-75.4,36.6-105.2c21.4-27,50.8-46.8,83.6-56.7c0-5,0.4-10,1.3-15.1
		c7-43.1,43.3-73.7,80.8-68.2c14.5,2.2,27.6,9.5,37.6,20.8c14.3-0.6,27.8,3,39.1,10.7c6.9,4.7,12.6,10.7,17,17.7L452,47.1
		c27.3-3.8,55-1.6,79.9,6.4c75.5,24.1,126.4,93.8,126.7,173C658.7,243.3,654.3,258.9,646.6,272.5L646.6,272.5z"/>
	<path class="st1" d="M627,226.7c0,34.3-28,62.3-62.3,62.3h-96.5c4.4-7.2,11.6-12.6,20.3-14.3l40.2-8c8.6-1.7,14.1-10.1,12.4-18.7
		c-1.7-8.6-10.1-14.1-18.7-12.4l-40.2,8c-23.8,4.8-42.2,22.8-48.2,45.4H192.4c4.4-7.2,11.6-12.6,20.3-14.3l40.2-8
		c8.6-1.7,14.1-10.1,12.4-18.7c-1.7-8.6-10.1-14.1-18.7-12.4l-40.2,8c-23.7,4.8-42.2,22.8-48.1,45.4H69.8
		c-14.1,0-25.7-11.6-25.7-25.7c0-30.9,10.5-61.2,29.8-85.5s46.3-41.4,76.5-48.4l18.3-4.3c-0.1,6.1,0.6,12.1,2.2,17.9
		c2.2,8.4,10.9,13.5,19.4,11.3c8.5-2.2,13.6-10.9,11.3-19.4c-3.4-12.9,0.6-28.4,10.6-41.4c16.3-21.2,44.4-29.3,61.3-17.8
		c8.2,5.5,11,13.8,12,19.7c2,12.3-2.2,26.2-11.3,38c-10.3,13.3-25.3,22-40.1,23c-8.8,0.6-15.3,8.2-14.7,17
		c0.6,8.4,7.6,14.8,15.8,14.8c0.4,0,40.1-0.8,64.1-35.2c12-17.1,19.2-36.2,18.3-54.8l138.8-19.5c22.7-3.2,45.4-1.4,65.9,5.2
		C584.6,103.8,626.7,161.3,627,226.7z"/>
	<path class="st0" d="M543.3,142.7c6.9,5.4,8,15.4,2.6,22.3c-3.1,4-7.7,6-12.5,6c-3.4,0-6.9-1.1-9.8-3.4c-7.2-5.6-15.2-10-24.1-12.8
		c-6.6-2.1-13.7-3.1-21.2-3.1c-3.8,0-7.7,0.2-11.6,0.8l-93.3,13.5c-8.7,1.2-16.7-4.8-18-13.4c-1.2-8.7,4.8-16.7,13.4-18l93.4-13.6
		c16.5-2.3,32.6-1.1,47,3.5C521.6,128.5,533,134.6,543.3,142.7L543.3,142.7z"/>
	<path class="st1" d="M210.1,49.5c1.4,0.2,2.7,0.5,4.1,0.9c-10.2,6-19.5,14.1-27,23.8c-4,5.2-7.4,10.7-10.2,16.4l-12,2.8
		c0.1-0.7,0.2-1.3,0.3-2C169.5,65.3,189.7,46.5,210.1,49.5z"/>
	<path class="st0" d="M117.7,180.9c8.7,0,15.9,7.1,15.9,15.9c0,8.8-7.1,15.9-15.9,15.9s-15.9-7.1-15.9-15.9
		C101.8,188,108.9,180.9,117.7,180.9z"/>
</g>
</svg>
